<?xml version="1.0" encoding="UTF-8"?>
<svg id="Layer_1" xmlns="http://www.w3.org/2000/svg" version="1.1" viewBox="0 0 3502.4 1449">
  <!-- Generator: Adobe Illustrator 29.3.1, SVG Export Plug-In . SVG Version: 2.1.0 Build 151)  -->
  <defs>
    <style>
      .st0 {
        fill: #fff;
      }
    </style>
  </defs>
  <rect class="st0" width="3502.4" height="1449"/>
  <path d="M3502.4,985.7v463.3H0v-479.9c2-2.7,3.7-5.7,4.6-9.4,2.1-7.8.6-15.7,7.5-23.5,4.1-4.6,7.3-4.8,12.2-10.1,5.9-6.1,8.3-13,10.2-19.5,4.9-16.9,7.9-38.6,9.6-55-4.5,0-8.9,0-13.3,0-27.7-.3-37-36.6-13-50l26.9-15c-24.1-13.9-36.8-40-32-64.4,5.2-26.4,28.6-39.1,32-40.9,6.5-3.8,17.2-9,31.3-10.7,25.3-3.2,44.7,6.8,51.7,10.7,3.7,2.2,25,15.2,29.9,40.9,4.6,24.1-7.2,49.7-29.9,64.4,8.5,6.7,17.1,13.3,25.6,19.9,18,14,8.7,42.5-14.2,43.4-7.7.3-15.5.6-23.4.8,7.5,61,19.4,75.3,19.4,75.3,3.5,4.1,7.3,7.7,12.2,15.4,12.1,19,6.7,25.3,15.6,35.5,12.1,13.8,28.7,10.1,33.3,23.5.2.6,1.2,3.5,1,7.2h3.6c-2.6-4.1-4.2-8.6-3.5-13.1,2.9-17.3,37-17.7,43.5-41.6,2.1-7.8.6-15.7,7.5-23.5,4.1-4.6,7.3-4.9,12.2-10.1,5.9-6.1,8.3-13,10.2-19.5,4.9-16.9,7.9-38.6,9.6-55-4.5,0-8.9,0-13.3,0-27.7-.3-37.1-36.6-13-50l26.9-15c-24.1-13.9-36.7-40-31.9-64.4,5.2-26.4,28.6-39.1,31.9-40.9,6.5-3.8,17.2-9,31.3-10.7,25.3-3.1,44.7,6.8,51.6,10.7,3.7,2.2,25,15.3,29.9,40.9,4.6,24.1-7.2,49.7-29.9,64.4,8.6,6.7,17.1,13.3,25.6,19.9,18,14,8.7,42.5-14.2,43.4-7.7.3-15.5.6-23.4.8,7.5,61,19.4,75.3,19.4,75.3,3.5,4.1,7.3,7.7,12.2,15.4,12.1,19,6.7,25.3,15.6,35.5,12.1,13.8,28.7,10.1,33.3,23.5.3.9,2.1,6.3,0,12.1-.2.6-.5,1.2-.8,1.7h6.8v-1.9c0-8.6,5.7-16,13.8-19.1-7.7-.9-13.3-7.2-12.7-14.5l.5-5.5c1-12,7.6-22.9,18.1-29.8l42.9-28.4v-55c-16.2-1.5-31.6-3.4-46.1-5.4-2.8-.4-4.1-3.5-2.4-5.6,34.6-42.5,69.3-84.9,103.9-127.4,1.6-1.9,0-4.7-2.6-4.6l-38.5,1.6-2,6.3c-.6,1.9-2.5,3.2-4.7,3.2l-57.6-.8c-3,0-5.6-2.2-5.8-5l-1.1-11.1c-.3-2.5,1.1-4.9,3.5-6l7.9-3.9c1.5-.8,1.5-2.8,0-3.6l-8.7-4.3c-1.9-.9-3-2.8-2.9-4.8l1.7-33.3c0-1.8.9-3.4,2.3-4.6l74.3-65c2.3-2,5.2-3.2,8.3-3.3l28-1.6-1.9-44.6c0-1.9,1.4-3.6,3.4-3.9,18.8-2.7,60.6-5.9,93.8,17.8,26.5,18.9,36.2,46.6,44.1,85.3,9.6,47.4,18.5,121.7,5.6,218.7-.3,2.1-2.1,3.8-4.3,4.1-12.4,1.4-25.5,2.7-39.2,3.7v53.4c22,19.7,35.8,32,57.8,51.7.3,5.5.5,11.1.8,16.6.3,5.7-2.5,10.9-6.9,14.2,4.1,3.8,6.7,9,6.7,14.8v1.9h7.6c3-2.1,6.4-3.5,10-4.3-.8-9.4-.7-20.7,1.9-33.1,4.5-21.9,14.6-38.3,23.3-49.1-8-3.4-12.5-12.1-10.3-20.8,2.4-9.3,11.8-15,21.2-13.1,9.6-66.5,19.2-133,28.8-199.5-3-.7-6-1.3-9-2-9.7-2.3-15.7-11.9-13.4-21.5,2.3-9.6,12.1-15.5,21.8-13.2,1.9.4,3.8.9,5.7,1.3.3-2.1.6-4.2.9-6.2-2.1-.4-4.2-.8-6.4-1.3-9.8-2.1-15.9-11.7-13.8-21.3,2.1-9.6,11.8-15.7,21.6-13.6,1.2.3,2.5.5,3.7.7.2-1.7.5-3.4.7-5.1l-29.3-86.6c-7.7-3.2-12.3-11.4-10.7-19.8,1.9-9.7,11.4-16,21.2-14.1,37.7,7.2,76.2,10.7,114.4,10.6,33.6-.1,67.6-3.1,100.8-8.9,9.9-1.7,19.2,4.8,21,14.5,1.5,8.5-3.4,16.7-11.3,19.7-12,28.4-24,56.9-36.1,85.4.3,0,.6,0,.9.1.3,2.4.5,4.9.7,7.3,9.8-1.6,19.1,4.9,20.8,14.5,1.7,9.7-4.9,19-14.7,20.7-.8.2-1.7.3-2.5.4.2,2.3.5,4.6.7,6.9,1.2-.2,2.4-.4,3.6-.6,9.8-1.8,19.3,4.5,21.2,14.2,1.9,9.7-4.6,19-14.4,20.9-2.3.4-4.6.8-6.9,1.2,6.8,67.5,13.5,135.1,20.3,202.6,0,0,0,0,0,0,9.8-1.8,19.3,4.5,21.2,14.2,1.6,8.3-2.9,16.3-10.3,19.6,7.7,9.3,16,22.9,19.3,41.1,2.7,14.6,1.3,27.6-1.5,38.3h1.9c5.9-11,19.4-14,31.9-28.9,3.4-4.1,23.6-27.5,17.2-51.3-2.1-8-7.5-16.3-2.7-22.5,4-5.2,12.4-5.4,14.6-5.8,11.6-1.8,22.8-35.7,24.4-164.5-25.4,2.3-40.4,3.6-47.1-5.9-3.9-5.6-5.6-16-.7-21.3,5.2-5.6,14.1-2,19.4-8.1,5.4-6.2-.8-13.1,5.2-19,3.6-3.6,6.6-1.7,13.6-6.3,3.7-2.5,9.1-6,9.7-11,.8-6.8-8.5-9.4-9.7-17.9-.8-5.8,2.9-9.5,5.2-13.8,1.8-3.4,2.5-7.2,2.6-11.1h.5c-6.1-8.3-50.2-71-19.5-139.2,13.4-29.8,35.9-49.1,52.4-60.2-6.4-4.1-10.7-10.9-10.7-18.5,0-12.6,11.4-22.8,25.6-22.8s25.6,10.2,25.6,22.8-3.9,13.8-9.9,18c18.2,10.9,44.6,31.1,59.9,64.3,31.9,68.8-12.2,131.7-16.5,137.7h-.9c.4,3.5,1.5,6.7,3.3,9.6,2,3.2,4.9,6.1,5.8,11.5,1.8,11.4-7.9,18-4.5,23.1,3.5,5.3,14.8-.4,22.6,5.8,7.6,6.1.9,15.1,9,23.6,6.7,7,14.8,4.8,18.1,11,3.5,6.5-2.2,15.5-5.2,19-8.2,9.7-22.8,9.7-45.6,8.2,2.5,26,4.1,46.9,5.1,61.9,3,43.5,4.5,84.3,26.6,94.5,3.6,1.6,12.1,4.6,15.9,12.1,3.9,7.6.1,14.6-1.3,20.8-5.3,22.8,18,46.8,32.4,61.7,10.5,10.8,19.9,17.2,26.3,22.6h28.8c.4-2.5.9-4.5,1.2-5.8,5.2-19.7,23.5-22,40.3-44.1,4.1-5.4,28.2-36.3,20.6-67.7-2.6-10.5-8.9-21.6-3.2-29.7,4.8-6.8,14.9-7.2,17.4-7.6,13.9-2.4,27.2-47.2,29.1-217.2-30.3,3-48.3,4.7-56.2-7.7-4.7-7.4-6.7-21.1-.8-28.2,6.2-7.4,16.8-2.6,23.1-10.6,6.4-8.1-1-17.3,6.2-25.1,4.3-4.7,7.9-2.3,16.2-8.4,4.5-3.3,10.9-8,11.6-14.5.9-9-10.2-12.4-11.6-23.6-1-7.7,3.5-12.5,6.2-18.3,11.4-24.5-11.8-60.7-21.6-76.1-17-26.7-31.7-34.2-28.5-48.7,1.7-7.6,7.9-16.2,16.2-19,8.3-2.8,14,2,26.2,0,9.1-1.4,14.6-5.4,18.5-7.6,4.7-2.6,9.3-3.9,14-4.4-.6-2.6-.8-5.4-.8-8.1,0-22.1,18.1-39.9,40.5-39.9s40.5,17.9,40.5,39.9-.9,9.6-2.5,13.9c20.7-2.5,33.6-8.7,51.1-1.4,4.9,2,11.1,4.6,14.7,10.7,7,12-3.4,25.8-17,57.1-15.7,36.1-27.9,65.2-17,84.5,2.4,4.2,5.9,8,6.9,15.2,2.2,15.1-9.4,23.7-5.4,30.4,4.2,7,17.7-.6,27,7.6,9.1,8.1,1.1,19.9,10.8,31.2,7.9,9.2,17.7,6.4,21.6,14.5,4.2,8.6-2.6,20.4-6.2,25.1-9.9,12.9-27.3,12.7-54.5,10.8,3,34.3,4.9,62,6.1,81.8,3.6,57.5,5.3,111.3,31.8,124.8,4.3,2.2,14.4,6.1,19,16,4.6,10.1.1,19.2-1.6,27.4-6.3,30.1,21.5,61.8,38.8,81.4,5.5,6.2,10.7,11.4,15.5,15.8,6.6-5.3,15.6-7.2,24.1-4.7,9.4-9.4,19-19.9,28.7-31.6,10.4-12.5,19.5-24.8,27.4-36.3-3.1-1-6.2-2.1-9.2-3.2-9.2-3.3-14-13.4-10.6-22.5,3.4-9.1,13.6-13.8,22.8-10.5,1.3.5,2.6.9,3.9,1.3,32-53.6,62.5-124.7,69.5-210.4.7-7.9,1.1-15.5,1.3-23.1-10.4-1.2-20.8-2.8-31.1-4.8-11.7-2.2-19.2-13.4-17-24.9,2.3-11.5,13.6-19,25.2-16.8.8.1,1.5.3,2.3.4-3.9-4.5-5.9-10.6-4.9-17,1.2-7.5,6.2-13.5,12.9-16.3l-45.6-134.7c-.6-.9-.9-1.7-.9-2.6,0-10.2,38.5-18.8,89.7-20.8v-14.7l-13.6-.4,7.6-55.3-48.4,11.9.8-85.1,46.9,15.7c-2-19.9-4-39.8-6.1-59.8h74.2l-10.6,59.8,53-9.7-1.5,71.7-46.2-3.7,8.3,56.8-12.1-.3v13.3c49,2.4,85.2,10.7,85.2,20.6s-.4,1.9-1,2.8l-47.8,133.4c8.4,1.8,15.3,8.6,16.7,17.5.9,6-.8,11.8-4.3,16.2,10.2-.2,19.5,6.9,21.5,17.1,2.3,11.5-5.3,22.6-17,24.9-10.5,2-21.2,3.7-31.9,4.9,1.8,27.2,5.6,57.6,12.6,90.2,12.3,57.1,30.8,104.8,48.7,142.1.9-.3,1.8-.6,2.7-.9,9.2-3.3,19.4,1.3,22.9,10.4,3.4,9.1-1.3,19.2-10.5,22.6-1.5.5-3,1.1-4.5,1.6,5.8,12.2,14,26.4,25.6,41,9.8,12.4,19.9,22.5,29.4,30.6,11.4-4.3,24.4,0,31,10,2.5-2.2,5-4.7,7.7-7.4,14.4-14.9,37.7-38.9,32.4-61.7-1.4-6.2-5.2-13.1-1.3-20.8,3.8-7.5,12.3-10.5,15.9-12.1,22.2-10.3,23.7-51,26.6-94.5,1-15,2.6-36,5.1-61.9-22.8,1.5-37.4,1.6-45.6-8.2-3-3.6-8.7-12.5-5.2-19,3.3-6.1,11.4-4,18.1-11,8.1-8.5,1.4-17.5,9-23.6,7.8-6.2,19.1-.5,22.6-5.8,3.4-5.1-6.3-11.6-4.5-23.1.9-5.5,3.8-8.3,5.8-11.5,1.8-2.9,2.9-6.1,3.3-9.6h-.9c-4.4-6-48.4-69-16.5-137.7,15.3-33.1,41.7-53.4,59.9-64.3-6-4.2-9.9-10.7-9.9-18,0-12.6,11.4-22.8,25.6-22.8s25.6,10.2,25.6,22.8-4.2,14.4-10.7,18.5c16.5,11.1,39,30.4,52.4,60.2,30.7,68.2-13.4,130.9-19.5,139.2h.5c0,3.9.8,7.7,2.6,11.1,2.2,4.4,6,8,5.2,13.8-1.2,8.5-10.5,11-9.7,17.9.6,4.9,5.9,8.5,9.7,11,7,4.6,10,2.8,13.6,6.3,6,5.9-.2,12.9,5.2,19,5.3,6.1,14.2,2.5,19.4,8.1,4.9,5.4,3.3,15.7-.7,21.3-6.6,9.4-21.7,8.1-47.1,5.9,1.6,128.8,12.8,162.7,24.4,164.5,2.1.3,10.5.6,14.6,5.8,4.8,6.1-.5,14.5-2.7,22.5-6.4,23.8,13.8,47.2,17.2,51.3,13.9,16.6,29,18.5,33.6,32.9h1.3c-3.5-11.4-5.7-25.9-2.7-42.3,3.3-18.1,11.7-31.8,19.3-41-7.5-3.3-11.9-11.3-10.3-19.6,1.9-9.7,11.4-16,21.2-14.2,0,0,0,0,0,0,6.8-67.5,13.5-135.1,20.3-202.6-2.3-.4-4.6-.8-6.9-1.2-9.8-1.8-16.3-11.2-14.4-20.9,1.9-9.7,11.4-16,21.2-14.2,1.2.2,2.4.4,3.6.6.2-2.3.5-4.6.7-6.9-.8-.1-1.7-.3-2.5-.4-9.8-1.7-16.4-11-14.7-20.7,1.7-9.7,11-16.1,20.8-14.5.2-2.4.5-4.9.7-7.3.3,0,.6,0,.9,0-12-28.5-24-56.9-36.1-85.4-7.9-3-12.8-11.2-11.3-19.7,1.7-9.7,11.1-16.2,21-14.5,33.2,5.8,67.1,8.7,100.8,8.8,38.3.1,76.8-3.4,114.4-10.6,9.8-1.9,19.3,4.5,21.2,14.2,1.6,8.4-3,16.6-10.7,19.8l-29.3,86.6c.3,1.7.5,3.4.7,5.2,1.2-.3,2.5-.5,3.7-.8,9.8-2.1,19.4,4,21.6,13.6,2.2,9.6-4,19.2-13.8,21.3-2.1.5-4.2.9-6.4,1.3.3,2.1.6,4.2.9,6.2,1.9-.4,3.8-.8,5.7-1.3,9.7-2.3,19.5,3.6,21.8,13.2,2.3,9.6-3.7,19.2-13.4,21.5-3,.7-6,1.4-9,2,9.6,66.5,19.2,133,28.8,199.5,9.4-1.9,18.8,3.8,21.2,13.1,2.2,8.6-2.3,17.3-10.3,20.7,8.6,10.8,18.8,27.2,23.3,49.2,2.6,12.4,2.7,23.6,1.9,33.1,5.6,1.2,10.7,4,14.6,8.3h3v-5.9c0-5.8,2.6-11.1,6.7-14.8-4.5-3.3-7.2-8.5-6.9-14.2.3-5.5.5-11.1.8-16.6,11-9.8,19.9-17.8,28.9-25.8,8.9-8,17.9-16,28.9-25.8v-53.4c-13.7-1-26.8-2.2-39.2-3.7-2.3-.3-4.1-2-4.3-4.1-12.9-97-4-171.2,5.6-218.7,7.8-38.6,17.6-66.4,44.1-85.3,33.3-23.7,75-20.5,93.8-17.8,2,.3,3.5,2,3.4,3.9l-1.9,44.6,28,1.6c3.1.2,6,1.4,8.3,3.3l74.3,65c1.4,1.2,2.2,2.8,2.3,4.6l1.7,33.3c.1,2-1,3.9-2.9,4.8l-8.7,4.3c-1.5.8-1.5,2.8,0,3.6l7.9,3.9c2.3,1.2,3.7,3.5,3.5,6l-1.1,11.1c-.3,2.8-2.8,5-5.8,5l-57.6.8c-2.2,0-4.1-1.3-4.7-3.2l-2-6.3-38.5-1.6c-2.6-.1-4.2,2.7-2.6,4.7,34.6,42.5,69.3,84.9,103.9,127.4,1.7,2.1.4,5.2-2.4,5.6-14.5,2.1-29.9,3.9-46.1,5.4v55l42.9,28.3c10.5,6.9,17.1,17.8,18.1,29.8l.5,5.5c.6,7.2-5,13.6-12.7,14.5,8.1,3.1,13.8,10.4,13.8,19.1v5.9h9.5c-1.5-1.6-2.7-3.5-3.5-5.7-2.1-5.8-.3-11.2,0-12.1,4.6-13.4,21.2-9.7,33.3-23.5,9-10.3,3.5-16.6,15.6-35.5,4.9-7.7,8.8-11.3,12.2-15.4,0,0,12-14.3,19.4-75.3-7.9-.2-15.7-.5-23.4-.8-22.9-.9-32.2-29.5-14.2-43.4,8.5-6.6,17.1-13.3,25.6-19.9-22.7-14.7-34.5-40.2-29.9-64.4,4.9-25.7,26.2-38.7,29.9-40.9,6.9-4,26.4-13.9,51.6-10.7,14.1,1.8,24.8,6.9,31.3,10.7,3.4,1.8,26.7,14.5,31.9,40.9,4.8,24.4-7.9,50.5-31.9,64.4l26.9,15c24.1,13.4,14.7,49.7-13,50-4.4,0-8.9,0-13.3,0,1.7,16.4,4.7,38.1,9.6,55,1.9,6.4,4.3,13.3,10.2,19.4,5,5.2,8.2,5.4,12.2,10.1,6.9,7.8,5.4,15.7,7.5,23.5,6.5,23.8,40.6,24.3,43.5,41.6,1,6.1-2.2,12-6.4,17.1h7.2c-1.6-5.4,0-10.3.3-11.1,4.6-13.4,21.2-9.7,33.3-23.5,9-10.3,3.5-16.6,15.6-35.5,4.9-7.7,8.8-11.3,12.2-15.4,0,0,12-14.3,19.4-75.3-7.9-.2-15.7-.5-23.4-.8-22.9-.9-32.2-29.5-14.2-43.4,8.5-6.7,17.1-13.3,25.6-19.9-22.7-14.7-34.5-40.2-29.9-64.4,4.9-25.7,26.2-38.7,29.9-40.9,6.9-4,26.4-13.9,51.7-10.7,14.1,1.8,24.8,6.9,31.3,10.7,3.4,1.8,26.7,14.5,32,40.9,4.8,24.4-7.9,50.5-32,64.4l26.9,15c24.1,13.4,14.7,49.7-13,50-4.4,0-8.9,0-13.3,0,1.7,16.4,4.7,38.1,9.6,55,1.9,6.4,4.3,13.3,10.2,19.4,5,5.2,8.2,5.5,12.2,10.1,6.9,7.8,5.4,15.7,7.5,23.5,5.4,19.9,30,23.5,39.7,34.2,2.9-1.6,6.3-2.8,9.9-4.3Z"/>
</svg>